<?xml version="1.0" encoding="utf-8" ?>
<svg baseProfile="full" height="200px" version="1.1" width="200px" xmlns="http://www.w3.org/2000/svg" xmlns:ev="http://www.w3.org/2001/xml-events" xmlns:xlink="http://www.w3.org/1999/xlink"><defs /><path d="M 100,100 L 100.0,68.0 A 32.0,32.0 0 0,1 116.0,72.28718707889797 Z" fill="#FF9999" opacity="0.8" stroke="white" stroke-width="2" /><path d="M 100,100 L 124.0,58.430780618346944 A 48.0,48.0 0 0,1 141.56921938165306,76.0 Z" fill="#66B2FF" opacity="0.8" stroke="white" stroke-width="2" /><path d="M 100,100 L 155.42562584220408,68.0 A 64.0,64.0 0 0,1 164.0,100.0 Z" fill="#99FF99" opacity="0.8" stroke="white" stroke-width="2" /><path d="M 100,100 L 140.0,100.0 A 40.0,40.0 0 0,1 134.64101615137756,120.0 Z" fill="#FFCC99" opacity="0.8" stroke="white" stroke-width="2" /><path d="M 100,100 L 162.35382907247958,136.0 A 72.0,72.0 0 0,1 136.0,162.35382907247958 Z" fill="#CC99FF" opacity="0.8" stroke="white" stroke-width="2" /><path d="M 100,100 L 128.0,148.49742261192856 A 56.0,56.0 0 0,1 100.0,156.0 Z" fill="#FFFF99" opacity="0.8" stroke="white" stroke-width="2" /><path d="M 100,100 L 100.0,124.0 A 24.0,24.0 0 0,1 88.0,120.78460969082653 Z" fill="#FF6666" opacity="0.8" stroke="white" stroke-width="2" /><path d="M 100,100 L 76.00000000000001,141.56921938165306 A 48.0,48.0 0 0,1 58.430780618346944,124.0 Z" fill="#3399FF" opacity="0.8" stroke="white" stroke-width="2" /><path d="M 100,100 L 44.57437415779592,132.0 A 64.0,64.0 0 0,1 36.0,100.00000000000001 Z" fill="#66FF66" opacity="0.8" stroke="white" stroke-width="2" /><path d="M 100,100 L 60.0,100.0 A 40.0,40.0 0 0,1 65.35898384862246,80.0 Z" fill="#FFB366" opacity="0.8" stroke="white" stroke-width="2" /><path d="M 100,100 L 37.64617092752042,63.99999999999999 A 72.0,72.0 0 0,1 63.99999999999997,37.64617092752044 Z" fill="#B366FF" opacity="0.8" stroke="white" stroke-width="2" /><path d="M 100,100 L 83.99999999999999,72.28718707889797 A 32.0,32.0 0 0,1 100.0,68.0 Z" fill="#FFFF66" opacity="0.8" stroke="white" stroke-width="2" /><circle cx="100" cy="100" fill="white" opacity="0.9" r="25" /><text dominant-baseline="middle" fill="#333" font-family="sans-serif" font-size="24px" font-weight="bold" text-anchor="middle" x="100" y="105">SW</text></svg>